<?xml version="1.0" standalone="no"?>
<!DOCTYPE svg PUBLIC "-//W3C//DTD SVG 20010904//EN"
 "http://www.w3.org/TR/2001/REC-SVG-20010904/DTD/svg10.dtd">
<svg version="1.0" xmlns="http://www.w3.org/2000/svg"
 width="512.000000pt" height="512.000000pt" viewBox="0 0 512.000000 512.000000"
 preserveAspectRatio="xMidYMid meet">

<g transform="translate(0.000000,512.000000) scale(0.100000,-0.100000)"
fill="#007aff" stroke="none">
<path d="M2493 4944 c-17 -9 -38 -23 -46 -32 -8 -10 -296 -494 -641 -1078
-561 -950 -626 -1065 -626 -1103 0 -55 20 -92 72 -134 57 -45 1214 -829 1247
-844 33 -16 96 -16 124 -1 39 20 1251 840 1275 862 53 47 67 119 36 179 -32
61 -1227 2072 -1251 2105 -45 60 -122 79 -190 46z"/>
</g>
<g transform="translate(0.000000,512.000000) scale(0.100000,-0.100000)"
fill="#444444" stroke="none">
<path d="M1339 1905 c-33 -18 -52 -66 -39 -100 11 -30 1111 -1598 1148 -1637
48 -51 137 -62 195 -23 20 13 945 1314 1151 1619 35 52 34 90 -3 127 -31 31
-59 36 -94 18 -12 -7 -260 -163 -551 -347 -463 -294 -534 -336 -576 -340 -31
-3 -57 1 -79 12 -17 9 -266 166 -554 348 -287 183 -533 333 -547 335 -14 2
-37 -4 -51 -12z"/>
</g>
</svg>
