<svg width="200" height="200" viewBox="0 0 200 200" fill="none" xmlns="http://www.w3.org/2000/svg">
<path d="M148.504 112.094L134.68 88.1322" stroke="#13915F" stroke-width="7.8336" stroke-linecap="round"/>
<path d="M155.418 100.109L127.77 100.109" stroke="#13915F" stroke-width="7.8336" stroke-linecap="round"/>
<path d="M148.504 88.125L134.68 112.087" stroke="#13915F" stroke-width="7.8336" stroke-linecap="round"/>
<path fill-rule="evenodd" clip-rule="evenodd" d="M45.7456 31C37.6018 31 31 37.6018 31 45.7456V154.494C31 162.638 37.6018 169.24 45.7456 169.24H147.122C159.337 169.24 169.24 159.337 169.24 147.122V128.461C169.24 126.425 167.59 124.774 165.554 124.774H124.08C115.936 124.774 109.334 118.172 109.334 110.029V90.2141C109.334 82.0704 115.936 75.4686 124.08 75.4686H165.554C167.59 75.4686 169.24 73.8181 169.24 71.7822V53.1184C169.24 40.9027 159.337 31 147.122 31H45.7456Z" fill="#13915F"/>
</svg>
