<svg width="1200" height="630" viewBox="0 0 1200 630" fill="none" xmlns="http://www.w3.org/2000/svg">
<g opacity="0.9">
<mask id="mask0_3750_14189" style="mask-type:alpha" maskUnits="userSpaceOnUse" x="0" y="0" width="1200" height="630">
<rect width="1200" height="630" fill="url(#paint0_radial_3750_14189)"/>
</mask>
<g mask="url(#mask0_3750_14189)">
<g style="mix-blend-mode:luminosity">
<g opacity="0.2">
<ellipse cx="5.44811" cy="5.44814" rx="5.44811" ry="5.44814" fill="#13915F"/>
<ellipse cx="59.9286" cy="5.44814" rx="5.44811" ry="5.44814" fill="#13915F"/>
<ellipse cx="114.409" cy="5.44814" rx="5.44811" ry="5.44814" fill="#13915F"/>
<ellipse cx="168.893" cy="5.44814" rx="5.44811" ry="5.44814" fill="#13915F"/>
<ellipse cx="223.374" cy="5.44814" rx="5.44811" ry="5.44814" fill="#13915F"/>
<ellipse cx="277.854" cy="5.44814" rx="5.44811" ry="5.44814" fill="#13915F"/>
<ellipse cx="332.335" cy="5.44814" rx="5.44811" ry="5.44814" fill="#13915F"/>
<ellipse cx="386.815" cy="5.44814" rx="5.44811" ry="5.44814" fill="#13915F"/>
<ellipse cx="441.296" cy="5.44814" rx="5.44811" ry="5.44814" fill="#13915F"/>
<ellipse cx="495.78" cy="5.44814" rx="5.44811" ry="5.44814" fill="#13915F"/>
<ellipse cx="550.261" cy="5.44814" rx="5.44811" ry="5.44814" fill="#13915F"/>
<ellipse cx="604.741" cy="5.44814" rx="5.44811" ry="5.44814" fill="#13915F"/>
<ellipse cx="659.222" cy="5.44814" rx="5.44811" ry="5.44814" fill="#13915F"/>
<ellipse cx="713.702" cy="5.44814" rx="5.44811" ry="5.44814" fill="#13915F"/>
<ellipse cx="768.186" cy="5.44814" rx="5.44811" ry="5.44814" fill="#13915F"/>
<ellipse cx="822.667" cy="5.44814" rx="5.44811" ry="5.44814" fill="#13915F"/>
<ellipse cx="877.147" cy="5.44814" rx="5.44811" ry="5.44814" fill="#13915F"/>
<ellipse cx="931.628" cy="5.44814" rx="5.44811" ry="5.44814" fill="#13915F"/>
<ellipse cx="986.108" cy="5.44814" rx="5.44811" ry="5.44814" fill="#13915F"/>
<ellipse cx="1040.59" cy="5.44814" rx="5.44811" ry="5.44814" fill="#13915F"/>
<ellipse cx="1095.07" cy="5.44814" rx="5.44811" ry="5.44814" fill="#13915F"/>
<ellipse cx="1149.55" cy="5.44814" rx="5.44811" ry="5.44814" fill="#13915F"/>
<ellipse cx="1204.03" cy="5.44814" rx="5.44811" ry="5.44814" fill="#13915F"/>
</g>
<g opacity="0.2">
<ellipse cx="5.44811" cy="67.3585" rx="5.44811" ry="5.44814" fill="#13915F"/>
<ellipse cx="59.9286" cy="67.3585" rx="5.44811" ry="5.44814" fill="#13915F"/>
<ellipse cx="114.409" cy="67.3585" rx="5.44811" ry="5.44814" fill="#13915F"/>
<ellipse cx="168.893" cy="67.3585" rx="5.44811" ry="5.44814" fill="#13915F"/>
<ellipse cx="223.374" cy="67.3585" rx="5.44811" ry="5.44814" fill="#13915F"/>
<ellipse cx="277.854" cy="67.3585" rx="5.44811" ry="5.44814" fill="#13915F"/>
<ellipse cx="332.335" cy="67.3585" rx="5.44811" ry="5.44814" fill="#13915F"/>
<ellipse cx="386.815" cy="67.3585" rx="5.44811" ry="5.44814" fill="#13915F"/>
<ellipse cx="441.296" cy="67.3585" rx="5.44811" ry="5.44814" fill="#13915F"/>
<ellipse cx="495.78" cy="67.3585" rx="5.44811" ry="5.44814" fill="#13915F"/>
<ellipse cx="550.261" cy="67.3585" rx="5.44811" ry="5.44814" fill="#13915F"/>
<ellipse cx="604.741" cy="67.3585" rx="5.44811" ry="5.44814" fill="#13915F"/>
<ellipse cx="659.222" cy="67.3585" rx="5.44811" ry="5.44814" fill="#13915F"/>
<ellipse cx="713.702" cy="67.3585" rx="5.44811" ry="5.44814" fill="#13915F"/>
<ellipse cx="768.186" cy="67.3585" rx="5.44811" ry="5.44814" fill="#13915F"/>
<ellipse cx="822.667" cy="67.3585" rx="5.44811" ry="5.44814" fill="#13915F"/>
<ellipse cx="877.147" cy="67.3585" rx="5.44811" ry="5.44814" fill="#13915F"/>
<ellipse cx="931.628" cy="67.3585" rx="5.44811" ry="5.44814" fill="#13915F"/>
<ellipse cx="986.108" cy="67.3585" rx="5.44811" ry="5.44814" fill="#13915F"/>
<ellipse cx="1040.59" cy="67.3585" rx="5.44811" ry="5.44814" fill="#13915F"/>
<ellipse cx="1095.07" cy="67.3585" rx="5.44811" ry="5.44814" fill="#13915F"/>
<ellipse cx="1149.55" cy="67.3585" rx="5.44811" ry="5.44814" fill="#13915F"/>
<ellipse cx="1204.03" cy="67.3585" rx="5.44811" ry="5.44814" fill="#13915F"/>
</g>
<g opacity="0.2">
<ellipse cx="5.44811" cy="129.269" rx="5.44811" ry="5.44814" fill="#13915F"/>
<ellipse cx="59.9286" cy="129.269" rx="5.44811" ry="5.44814" fill="#13915F"/>
<ellipse cx="114.409" cy="129.269" rx="5.44811" ry="5.44814" fill="#13915F"/>
<ellipse cx="168.893" cy="129.269" rx="5.44811" ry="5.44814" fill="#13915F"/>
<ellipse cx="223.374" cy="129.269" rx="5.44811" ry="5.44814" fill="#13915F"/>
<ellipse cx="277.854" cy="129.269" rx="5.44811" ry="5.44814" fill="#13915F"/>
<ellipse cx="332.335" cy="129.269" rx="5.44811" ry="5.44814" fill="#13915F"/>
<ellipse cx="386.815" cy="129.269" rx="5.44811" ry="5.44814" fill="#13915F"/>
<ellipse cx="441.296" cy="129.269" rx="5.44811" ry="5.44814" fill="#13915F"/>
<ellipse cx="495.78" cy="129.269" rx="5.44811" ry="5.44814" fill="#13915F"/>
<ellipse cx="550.261" cy="129.269" rx="5.44811" ry="5.44814" fill="#13915F"/>
<ellipse cx="604.741" cy="129.269" rx="5.44811" ry="5.44814" fill="#13915F"/>
<ellipse cx="659.222" cy="129.269" rx="5.44811" ry="5.44814" fill="#13915F"/>
<ellipse cx="713.702" cy="129.269" rx="5.44811" ry="5.44814" fill="#13915F"/>
<ellipse cx="768.186" cy="129.269" rx="5.44811" ry="5.44814" fill="#13915F"/>
<ellipse cx="822.667" cy="129.269" rx="5.44811" ry="5.44814" fill="#13915F"/>
<ellipse cx="877.147" cy="129.269" rx="5.44811" ry="5.44814" fill="#13915F"/>
<ellipse cx="931.628" cy="129.269" rx="5.44811" ry="5.44814" fill="#13915F"/>
<ellipse cx="986.108" cy="129.269" rx="5.44811" ry="5.44814" fill="#13915F"/>
<ellipse cx="1040.59" cy="129.269" rx="5.44811" ry="5.44814" fill="#13915F"/>
<ellipse cx="1095.07" cy="129.269" rx="5.44811" ry="5.44814" fill="#13915F"/>
<ellipse cx="1149.55" cy="129.269" rx="5.44811" ry="5.44814" fill="#13915F"/>
<ellipse cx="1204.03" cy="129.269" rx="5.44811" ry="5.44814" fill="#13915F"/>
</g>
<g opacity="0.2">
<ellipse cx="5.44811" cy="191.179" rx="5.44811" ry="5.44814" fill="#13915F"/>
<ellipse cx="59.9286" cy="191.179" rx="5.44811" ry="5.44814" fill="#13915F"/>
<ellipse cx="114.409" cy="191.179" rx="5.44811" ry="5.44814" fill="#13915F"/>
<ellipse cx="168.893" cy="191.179" rx="5.44811" ry="5.44814" fill="#13915F"/>
<ellipse cx="223.374" cy="191.179" rx="5.44811" ry="5.44814" fill="#13915F"/>
<ellipse cx="277.854" cy="191.179" rx="5.44811" ry="5.44814" fill="#13915F"/>
<ellipse cx="332.335" cy="191.179" rx="5.44811" ry="5.44814" fill="#13915F"/>
<ellipse cx="386.815" cy="191.179" rx="5.44811" ry="5.44814" fill="#13915F"/>
<ellipse cx="441.296" cy="191.179" rx="5.44811" ry="5.44814" fill="#13915F"/>
<ellipse cx="495.78" cy="191.179" rx="5.44811" ry="5.44814" fill="#13915F"/>
<ellipse cx="550.261" cy="191.179" rx="5.44811" ry="5.44814" fill="#13915F"/>
<ellipse cx="604.741" cy="191.179" rx="5.44811" ry="5.44814" fill="#13915F"/>
<ellipse cx="659.222" cy="191.179" rx="5.44811" ry="5.44814" fill="#13915F"/>
<ellipse cx="713.702" cy="191.179" rx="5.44811" ry="5.44814" fill="#13915F"/>
<ellipse cx="768.186" cy="191.179" rx="5.44811" ry="5.44814" fill="#13915F"/>
<ellipse cx="822.667" cy="191.179" rx="5.44811" ry="5.44814" fill="#13915F"/>
<ellipse cx="877.147" cy="191.179" rx="5.44811" ry="5.44814" fill="#13915F"/>
<ellipse cx="931.628" cy="191.179" rx="5.44811" ry="5.44814" fill="#13915F"/>
<ellipse cx="986.108" cy="191.179" rx="5.44811" ry="5.44814" fill="#13915F"/>
<ellipse cx="1040.59" cy="191.179" rx="5.44811" ry="5.44814" fill="#13915F"/>
<ellipse cx="1095.07" cy="191.179" rx="5.44811" ry="5.44814" fill="#13915F"/>
<ellipse cx="1149.55" cy="191.179" rx="5.44811" ry="5.44814" fill="#13915F"/>
<ellipse cx="1204.03" cy="191.179" rx="5.44811" ry="5.44814" fill="#13915F"/>
</g>
<g opacity="0.2">
<ellipse cx="5.44811" cy="253.09" rx="5.44811" ry="5.44814" fill="#13915F"/>
<ellipse cx="59.9286" cy="253.089" rx="5.44811" ry="5.44814" fill="#13915F"/>
<ellipse cx="114.409" cy="253.09" rx="5.44811" ry="5.44814" fill="#13915F"/>
<ellipse cx="168.893" cy="253.09" rx="5.44811" ry="5.44814" fill="#13915F"/>
<ellipse cx="223.374" cy="253.09" rx="5.44811" ry="5.44814" fill="#13915F"/>
<ellipse cx="277.854" cy="253.09" rx="5.44811" ry="5.44814" fill="#13915F"/>
<ellipse cx="332.335" cy="253.09" rx="5.44811" ry="5.44814" fill="#13915F"/>
<ellipse cx="386.815" cy="253.089" rx="5.44811" ry="5.44814" fill="#13915F"/>
<ellipse cx="441.296" cy="253.09" rx="5.44811" ry="5.44814" fill="#13915F"/>
<ellipse cx="495.78" cy="253.09" rx="5.44811" ry="5.44814" fill="#13915F"/>
<ellipse cx="550.261" cy="253.09" rx="5.44811" ry="5.44814" fill="#13915F"/>
<ellipse cx="604.741" cy="253.09" rx="5.44811" ry="5.44814" fill="#13915F"/>
<ellipse cx="659.222" cy="253.09" rx="5.44811" ry="5.44814" fill="#13915F"/>
<ellipse cx="713.702" cy="253.09" rx="5.44811" ry="5.44814" fill="#13915F"/>
<ellipse cx="768.186" cy="253.09" rx="5.44811" ry="5.44814" fill="#13915F"/>
<ellipse cx="822.667" cy="253.09" rx="5.44811" ry="5.44814" fill="#13915F"/>
<ellipse cx="877.147" cy="253.09" rx="5.44811" ry="5.44814" fill="#13915F"/>
<ellipse cx="931.628" cy="253.09" rx="5.44811" ry="5.44814" fill="#13915F"/>
<ellipse cx="986.108" cy="253.09" rx="5.44811" ry="5.44814" fill="#13915F"/>
<ellipse cx="1040.59" cy="253.09" rx="5.44811" ry="5.44814" fill="#13915F"/>
<ellipse cx="1095.07" cy="253.09" rx="5.44811" ry="5.44814" fill="#13915F"/>
<ellipse cx="1149.55" cy="253.09" rx="5.44811" ry="5.44814" fill="#13915F"/>
<ellipse cx="1204.03" cy="253.09" rx="5.44811" ry="5.44814" fill="#13915F"/>
</g>
<g opacity="0.2">
<ellipse cx="5.44811" cy="315" rx="5.44811" ry="5.44814" fill="#13915F"/>
<ellipse cx="59.9286" cy="315" rx="5.44811" ry="5.44814" fill="#13915F"/>
<ellipse cx="114.409" cy="315" rx="5.44811" ry="5.44814" fill="#13915F"/>
<ellipse cx="168.893" cy="315" rx="5.44811" ry="5.44814" fill="#13915F"/>
<ellipse cx="223.374" cy="315" rx="5.44811" ry="5.44814" fill="#13915F"/>
<ellipse cx="277.854" cy="315" rx="5.44811" ry="5.44814" fill="#13915F"/>
<ellipse cx="332.335" cy="315" rx="5.44811" ry="5.44814" fill="#13915F"/>
<ellipse cx="386.815" cy="315" rx="5.44811" ry="5.44814" fill="#13915F"/>
<ellipse cx="441.296" cy="315" rx="5.44811" ry="5.44814" fill="#13915F"/>
<ellipse cx="495.78" cy="315" rx="5.44811" ry="5.44814" fill="#13915F"/>
<ellipse cx="550.261" cy="315" rx="5.44811" ry="5.44814" fill="#13915F"/>
<ellipse cx="604.741" cy="315" rx="5.44811" ry="5.44814" fill="#13915F"/>
<ellipse cx="659.222" cy="315" rx="5.44811" ry="5.44814" fill="#13915F"/>
<ellipse cx="713.702" cy="315" rx="5.44811" ry="5.44814" fill="#13915F"/>
<ellipse cx="768.186" cy="315" rx="5.44811" ry="5.44814" fill="#13915F"/>
<ellipse cx="822.667" cy="315" rx="5.44811" ry="5.44814" fill="#13915F"/>
<ellipse cx="877.147" cy="315" rx="5.44811" ry="5.44814" fill="#13915F"/>
<ellipse cx="931.628" cy="315" rx="5.44811" ry="5.44814" fill="#13915F"/>
<ellipse cx="986.108" cy="315" rx="5.44811" ry="5.44814" fill="#13915F"/>
<ellipse cx="1040.59" cy="315" rx="5.44811" ry="5.44814" fill="#13915F"/>
<ellipse cx="1095.07" cy="315" rx="5.44811" ry="5.44814" fill="#13915F"/>
<ellipse cx="1149.55" cy="315" rx="5.44811" ry="5.44814" fill="#13915F"/>
<ellipse cx="1204.03" cy="315" rx="5.44811" ry="5.44814" fill="#13915F"/>
</g>
<g opacity="0.2">
<ellipse cx="5.44811" cy="376.91" rx="5.44811" ry="5.44814" fill="#13915F"/>
<ellipse cx="59.9286" cy="376.911" rx="5.44811" ry="5.44814" fill="#13915F"/>
<ellipse cx="114.409" cy="376.91" rx="5.44811" ry="5.44814" fill="#13915F"/>
<ellipse cx="168.893" cy="376.91" rx="5.44811" ry="5.44814" fill="#13915F"/>
<ellipse cx="223.374" cy="376.91" rx="5.44811" ry="5.44814" fill="#13915F"/>
<ellipse cx="277.854" cy="376.91" rx="5.44811" ry="5.44814" fill="#13915F"/>
<ellipse cx="332.335" cy="376.91" rx="5.44811" ry="5.44814" fill="#13915F"/>
<ellipse cx="386.815" cy="376.911" rx="5.44811" ry="5.44814" fill="#13915F"/>
<ellipse cx="441.296" cy="376.91" rx="5.44811" ry="5.44814" fill="#13915F"/>
<ellipse cx="495.78" cy="376.91" rx="5.44811" ry="5.44814" fill="#13915F"/>
<ellipse cx="550.261" cy="376.91" rx="5.44811" ry="5.44814" fill="#13915F"/>
<ellipse cx="604.741" cy="376.91" rx="5.44811" ry="5.44814" fill="#13915F"/>
<ellipse cx="659.222" cy="376.91" rx="5.44811" ry="5.44814" fill="#13915F"/>
<ellipse cx="713.702" cy="376.91" rx="5.44811" ry="5.44814" fill="#13915F"/>
<ellipse cx="768.186" cy="376.91" rx="5.44811" ry="5.44814" fill="#13915F"/>
<ellipse cx="822.667" cy="376.91" rx="5.44811" ry="5.44814" fill="#13915F"/>
<ellipse cx="877.147" cy="376.91" rx="5.44811" ry="5.44814" fill="#13915F"/>
<ellipse cx="931.628" cy="376.91" rx="5.44811" ry="5.44814" fill="#13915F"/>
<ellipse cx="986.108" cy="376.91" rx="5.44811" ry="5.44814" fill="#13915F"/>
<ellipse cx="1040.59" cy="376.91" rx="5.44811" ry="5.44814" fill="#13915F"/>
<ellipse cx="1095.07" cy="376.91" rx="5.44811" ry="5.44814" fill="#13915F"/>
<ellipse cx="1149.55" cy="376.91" rx="5.44811" ry="5.44814" fill="#13915F"/>
<ellipse cx="1204.03" cy="376.91" rx="5.44811" ry="5.44814" fill="#13915F"/>
</g>
<g opacity="0.2">
<ellipse cx="5.44811" cy="438.821" rx="5.44811" ry="5.44814" fill="#13915F"/>
<ellipse cx="59.9286" cy="438.821" rx="5.44811" ry="5.44814" fill="#13915F"/>
<ellipse cx="114.409" cy="438.821" rx="5.44811" ry="5.44814" fill="#13915F"/>
<ellipse cx="168.893" cy="438.821" rx="5.44811" ry="5.44814" fill="#13915F"/>
<ellipse cx="223.374" cy="438.821" rx="5.44811" ry="5.44814" fill="#13915F"/>
<ellipse cx="277.854" cy="438.821" rx="5.44811" ry="5.44814" fill="#13915F"/>
<ellipse cx="332.335" cy="438.821" rx="5.44811" ry="5.44814" fill="#13915F"/>
<ellipse cx="386.815" cy="438.821" rx="5.44811" ry="5.44814" fill="#13915F"/>
<ellipse cx="441.296" cy="438.821" rx="5.44811" ry="5.44814" fill="#13915F"/>
<ellipse cx="495.78" cy="438.821" rx="5.44811" ry="5.44814" fill="#13915F"/>
<ellipse cx="550.261" cy="438.821" rx="5.44811" ry="5.44814" fill="#13915F"/>
<ellipse cx="604.741" cy="438.821" rx="5.44811" ry="5.44814" fill="#13915F"/>
<ellipse cx="659.222" cy="438.821" rx="5.44811" ry="5.44814" fill="#13915F"/>
<ellipse cx="713.702" cy="438.821" rx="5.44811" ry="5.44814" fill="#13915F"/>
<ellipse cx="768.186" cy="438.821" rx="5.44811" ry="5.44814" fill="#13915F"/>
<ellipse cx="822.667" cy="438.821" rx="5.44811" ry="5.44814" fill="#13915F"/>
<ellipse cx="877.147" cy="438.821" rx="5.44811" ry="5.44814" fill="#13915F"/>
<ellipse cx="931.628" cy="438.821" rx="5.44811" ry="5.44814" fill="#13915F"/>
<ellipse cx="986.108" cy="438.821" rx="5.44811" ry="5.44814" fill="#13915F"/>
<ellipse cx="1040.59" cy="438.821" rx="5.44811" ry="5.44814" fill="#13915F"/>
<ellipse cx="1095.07" cy="438.821" rx="5.44811" ry="5.44814" fill="#13915F"/>
</g>
<g opacity="0.2">
<ellipse cx="5.44811" cy="500.731" rx="5.44811" ry="5.44814" fill="#13915F"/>
<ellipse cx="59.9286" cy="500.731" rx="5.44811" ry="5.44814" fill="#13915F"/>
<ellipse cx="114.409" cy="500.731" rx="5.44811" ry="5.44814" fill="#13915F"/>
<ellipse cx="168.893" cy="500.731" rx="5.44811" ry="5.44814" fill="#13915F"/>
<ellipse cx="223.374" cy="500.731" rx="5.44811" ry="5.44814" fill="#13915F"/>
<ellipse cx="277.854" cy="500.731" rx="5.44811" ry="5.44814" fill="#13915F"/>
<ellipse cx="332.335" cy="500.731" rx="5.44811" ry="5.44814" fill="#13915F"/>
<ellipse cx="386.815" cy="500.731" rx="5.44811" ry="5.44814" fill="#13915F"/>
<ellipse cx="441.296" cy="500.731" rx="5.44811" ry="5.44814" fill="#13915F"/>
<ellipse cx="495.78" cy="500.731" rx="5.44811" ry="5.44814" fill="#13915F"/>
<ellipse cx="550.261" cy="500.731" rx="5.44811" ry="5.44814" fill="#13915F"/>
<ellipse cx="604.741" cy="500.731" rx="5.44811" ry="5.44814" fill="#13915F"/>
<ellipse cx="659.222" cy="500.731" rx="5.44811" ry="5.44814" fill="#13915F"/>
<ellipse cx="713.702" cy="500.731" rx="5.44811" ry="5.44814" fill="#13915F"/>
<ellipse cx="768.186" cy="500.731" rx="5.44811" ry="5.44814" fill="#13915F"/>
<ellipse cx="822.667" cy="500.731" rx="5.44811" ry="5.44814" fill="#13915F"/>
<ellipse cx="877.147" cy="500.731" rx="5.44811" ry="5.44814" fill="#13915F"/>
<ellipse cx="931.628" cy="500.731" rx="5.44811" ry="5.44814" fill="#13915F"/>
<ellipse cx="986.108" cy="500.731" rx="5.44811" ry="5.44814" fill="#13915F"/>
<ellipse cx="1040.59" cy="500.731" rx="5.44811" ry="5.44814" fill="#13915F"/>
<ellipse cx="1095.07" cy="500.731" rx="5.44811" ry="5.44814" fill="#13915F"/>
</g>
<g opacity="0.2">
<ellipse cx="5.44811" cy="562.641" rx="5.44811" ry="5.44814" fill="#13915F"/>
<ellipse cx="59.9286" cy="562.641" rx="5.44811" ry="5.44814" fill="#13915F"/>
<ellipse cx="114.409" cy="562.641" rx="5.44811" ry="5.44814" fill="#13915F"/>
<ellipse cx="168.893" cy="562.641" rx="5.44811" ry="5.44814" fill="#13915F"/>
<ellipse cx="223.374" cy="562.641" rx="5.44811" ry="5.44814" fill="#13915F"/>
<ellipse cx="277.854" cy="562.641" rx="5.44811" ry="5.44814" fill="#13915F"/>
<ellipse cx="332.335" cy="562.641" rx="5.44811" ry="5.44814" fill="#13915F"/>
<ellipse cx="386.815" cy="562.641" rx="5.44811" ry="5.44814" fill="#13915F"/>
<ellipse cx="441.296" cy="562.641" rx="5.44811" ry="5.44814" fill="#13915F"/>
<ellipse cx="495.78" cy="562.641" rx="5.44811" ry="5.44814" fill="#13915F"/>
<ellipse cx="550.261" cy="562.641" rx="5.44811" ry="5.44814" fill="#13915F"/>
<ellipse cx="604.741" cy="562.641" rx="5.44811" ry="5.44814" fill="#13915F"/>
<ellipse cx="659.222" cy="562.641" rx="5.44811" ry="5.44814" fill="#13915F"/>
<ellipse cx="713.702" cy="562.641" rx="5.44811" ry="5.44814" fill="#13915F"/>
<ellipse cx="768.186" cy="562.641" rx="5.44811" ry="5.44814" fill="#13915F"/>
<ellipse cx="822.667" cy="562.641" rx="5.44811" ry="5.44814" fill="#13915F"/>
<ellipse cx="877.147" cy="562.641" rx="5.44811" ry="5.44814" fill="#13915F"/>
<ellipse cx="931.628" cy="562.641" rx="5.44811" ry="5.44814" fill="#13915F"/>
<ellipse cx="986.108" cy="562.641" rx="5.44811" ry="5.44814" fill="#13915F"/>
<ellipse cx="1040.59" cy="562.641" rx="5.44811" ry="5.44814" fill="#13915F"/>
<ellipse cx="1095.07" cy="562.641" rx="5.44811" ry="5.44814" fill="#13915F"/>
</g>
<g opacity="0.2">
<ellipse cx="5.44811" cy="624.552" rx="5.44811" ry="5.44814" fill="#13915F"/>
<ellipse cx="59.9286" cy="624.552" rx="5.44811" ry="5.44814" fill="#13915F"/>
<ellipse cx="114.409" cy="624.552" rx="5.44811" ry="5.44814" fill="#13915F"/>
<ellipse cx="168.893" cy="624.552" rx="5.44811" ry="5.44814" fill="#13915F"/>
<ellipse cx="223.374" cy="624.552" rx="5.44811" ry="5.44814" fill="#13915F"/>
<ellipse cx="277.854" cy="624.552" rx="5.44811" ry="5.44814" fill="#13915F"/>
<ellipse cx="332.335" cy="624.552" rx="5.44811" ry="5.44814" fill="#13915F"/>
<ellipse cx="386.815" cy="624.552" rx="5.44811" ry="5.44814" fill="#13915F"/>
<ellipse cx="441.296" cy="624.552" rx="5.44811" ry="5.44814" fill="#13915F"/>
<ellipse cx="495.78" cy="624.552" rx="5.44811" ry="5.44814" fill="#13915F"/>
<ellipse cx="550.261" cy="624.552" rx="5.44811" ry="5.44814" fill="#13915F"/>
<ellipse cx="604.741" cy="624.552" rx="5.44811" ry="5.44814" fill="#13915F"/>
<ellipse cx="659.222" cy="624.552" rx="5.44811" ry="5.44814" fill="#13915F"/>
<ellipse cx="713.702" cy="624.552" rx="5.44811" ry="5.44814" fill="#13915F"/>
<ellipse cx="768.186" cy="624.552" rx="5.44811" ry="5.44814" fill="#13915F"/>
<ellipse cx="822.667" cy="624.552" rx="5.44811" ry="5.44814" fill="#13915F"/>
<ellipse cx="877.147" cy="624.552" rx="5.44811" ry="5.44814" fill="#13915F"/>
<ellipse cx="931.628" cy="624.552" rx="5.44811" ry="5.44814" fill="#13915F"/>
<ellipse cx="986.108" cy="624.552" rx="5.44811" ry="5.44814" fill="#13915F"/>
<ellipse cx="1040.59" cy="624.552" rx="5.44811" ry="5.44814" fill="#13915F"/>
<ellipse cx="1095.07" cy="624.552" rx="5.44811" ry="5.44814" fill="#13915F"/>
</g>
</g>
</g>
</g>
<g opacity="0.25">
<ellipse cx="368.373" cy="303.503" rx="368.373" ry="303.503" fill="url(#paint1_radial_3750_14189)" fill-opacity="0.7"/>
<ellipse cx="831.627" cy="326.497" rx="368.373" ry="303.503" fill="url(#paint2_radial_3750_14189)" fill-opacity="0.75"/>
<ellipse cx="170.254" cy="308.102" rx="153.489" ry="126.46" fill="url(#paint3_radial_3750_14189)" fill-opacity="0.3"/>
<ellipse cx="239.665" cy="372.48" rx="153.489" ry="126.46" fill="url(#paint4_radial_3750_14189)" fill-opacity="0.2"/>
<ellipse cx="633.684" cy="220.73" rx="153.489" ry="126.46" fill="url(#paint5_radial_3750_14189)" fill-opacity="0.2"/>
</g>
<defs>
<radialGradient id="paint0_radial_3750_14189" cx="0" cy="0" r="1" gradientUnits="userSpaceOnUse" gradientTransform="translate(600 262.934) rotate(90) scale(367.066 699.174)">
<stop stop-color="#0258FE"/>
<stop offset="1" stop-color="#D9D9D9" stop-opacity="0"/>
</radialGradient>
<radialGradient id="paint1_radial_3750_14189" cx="0" cy="0" r="1" gradientUnits="userSpaceOnUse" gradientTransform="translate(368.373 303.503) rotate(90) scale(303.503 368.373)">
<stop stop-color="#C3EDFF" stop-opacity="0.4"/>
<stop offset="1" stop-color="#2F8FF8" stop-opacity="0"/>
</radialGradient>
<radialGradient id="paint2_radial_3750_14189" cx="0" cy="0" r="1" gradientUnits="userSpaceOnUse" gradientTransform="translate(831.627 326.497) rotate(90) scale(303.503 368.373)">
<stop stop-color="#3AADDF" stop-opacity="0.4"/>
<stop offset="1" stop-color="#2F8FF8" stop-opacity="0"/>
</radialGradient>
<radialGradient id="paint3_radial_3750_14189" cx="0" cy="0" r="1" gradientUnits="userSpaceOnUse" gradientTransform="translate(170.254 308.102) rotate(90) scale(126.46 153.489)">
<stop stop-color="#4FFFEA" stop-opacity="0.4"/>
<stop offset="1" stop-color="#2F8FF8" stop-opacity="0"/>
</radialGradient>
<radialGradient id="paint4_radial_3750_14189" cx="0" cy="0" r="1" gradientUnits="userSpaceOnUse" gradientTransform="translate(239.665 372.48) rotate(90) scale(126.46 153.489)">
<stop stop-color="#B3FFFA"/>
<stop offset="1" stop-color="#5FF5FF" stop-opacity="0"/>
</radialGradient>
<radialGradient id="paint5_radial_3750_14189" cx="0" cy="0" r="1" gradientUnits="userSpaceOnUse" gradientTransform="translate(633.684 220.73) rotate(90) scale(126.46 153.489)">
<stop stop-color="#8AC4EE"/>
<stop offset="1" stop-color="#5F78FF" stop-opacity="0"/>
</radialGradient>
</defs>
</svg>
